<svg id="svg" version="1.1" xmlns="http://www.w3.org/2000/svg" xmlns:xlink="http://www.w3.org/1999/xlink" width="400" height="146.323619070845" viewBox="0, 0, 400,146.323619070845"><g id="svgg"><path id="path0" d="M15.292 18.118 C 15.498 18.157,15.835 18.157,16.042 18.118 C 16.248 18.078,16.079 18.045,15.667 18.045 C 15.254 18.045,15.085 18.078,15.292 18.118 M17.000 18.165 C 16.679 18.231,20.017 18.297,24.417 18.311 C 28.817 18.325,33.017 18.405,33.750 18.489 C 34.483 18.573,36.358 18.690,37.917 18.750 C 39.475 18.810,41.162 18.932,41.667 19.022 C 42.171 19.112,43.736 19.250,45.144 19.329 C 47.372 19.454,48.075 19.570,50.560 20.223 C 52.131 20.636,54.017 21.102,54.750 21.258 C 62.972 23.008,66.756 25.492,71.755 32.417 C 72.483 33.425,73.647 35.001,74.341 35.919 C 76.023 38.142,76.391 38.955,77.082 41.967 C 78.044 46.161,77.669 51.651,76.224 54.542 C 75.732 55.525,75.843 55.578,76.398 54.625 C 78.895 50.332,78.197 40.799,75.073 36.541 C 74.485 35.739,73.348 34.184,72.546 33.085 C 66.827 25.240,63.802 23.150,55.301 21.168 C 54.081 20.883,51.921 20.343,50.500 19.967 C 48.354 19.400,47.516 19.262,45.550 19.152 C 44.249 19.080,42.749 18.937,42.217 18.835 C 41.685 18.734,39.750 18.581,37.917 18.495 C 36.083 18.409,33.683 18.265,32.583 18.174 C 30.325 17.986,17.896 17.979,17.000 18.165 M162.333 18.184 C 161.462 18.258,159.212 18.393,157.333 18.484 C 155.454 18.576,153.482 18.734,152.950 18.835 C 152.418 18.937,150.918 19.080,149.616 19.152 C 147.651 19.262,146.813 19.400,144.667 19.967 C 143.246 20.343,141.085 20.883,139.866 21.168 C 134.092 22.514,131.284 23.824,127.991 26.707 C 126.255 28.227,125.333 29.375,120.054 36.591 C 116.932 40.859,116.312 50.486,118.883 54.784 C 119.522 55.853,119.669 55.844,119.070 54.773 C 117.054 51.165,117.113 42.516,119.182 38.443 C 119.685 37.453,122.892 33.016,125.523 29.669 C 128.963 25.293,132.745 23.092,139.583 21.483 C 140.775 21.203,143.035 20.636,144.606 20.223 C 147.091 19.570,147.795 19.454,150.023 19.329 C 151.431 19.250,152.996 19.112,153.500 19.022 C 154.004 18.932,155.692 18.810,157.250 18.750 C 158.808 18.690,160.683 18.573,161.417 18.489 C 162.150 18.405,166.350 18.326,170.750 18.313 C 175.150 18.300,178.525 18.233,178.250 18.165 C 177.583 17.998,164.345 18.014,162.333 18.184 M179.125 18.118 C 179.331 18.157,179.669 18.157,179.875 18.118 C 180.081 18.078,179.912 18.045,179.500 18.045 C 179.088 18.045,178.919 18.078,179.125 18.118 M42.975 37.681 C 41.724 37.752,39.624 37.963,38.308 38.149 C 36.075 38.465,32.401 38.770,29.500 38.880 C 28.201 38.929,27.546 39.172,25.583 40.337 C 25.125 40.609,24.637 40.885,24.500 40.949 C 23.910 41.226,21.126 43.987,20.417 44.998 C 19.607 46.153,18.832 47.232,18.617 47.503 C 18.507 47.641,18.114 48.129,17.744 48.586 C 16.426 50.215,15.203 52.632,14.403 55.189 C 14.164 55.956,13.869 56.808,13.748 57.083 C 13.403 57.871,12.598 62.388,12.411 64.583 C 12.365 65.133,12.282 65.921,12.227 66.333 C 12.034 67.799,11.967 77.729,12.145 78.583 C 12.241 79.042,12.361 79.717,12.413 80.083 C 12.554 81.073,12.647 81.289,12.971 81.374 C 13.176 81.428,13.458 82.025,13.904 83.350 C 14.255 84.395,14.831 85.787,15.185 86.444 C 15.538 87.101,16.051 88.254,16.325 89.005 C 18.718 95.560,25.137 99.254,34.083 99.222 C 40.328 99.200,43.306 97.754,48.249 92.343 C 48.798 91.742,49.815 90.650,50.508 89.917 C 54.955 85.216,56.904 82.326,59.078 77.213 C 60.799 73.166,62.466 70.590,65.990 66.530 C 67.049 65.308,68.390 63.733,68.969 63.030 C 69.547 62.326,70.466 61.285,71.010 60.717 C 72.234 59.439,72.316 59.123,71.125 60.272 C 67.968 63.319,64.311 64.918,60.583 64.881 C 46.450 64.741,44.090 45.502,57.380 38.762 C 57.726 38.586,57.951 38.391,57.880 38.327 C 57.096 37.631,49.579 37.304,42.975 37.681 M140.605 37.674 C 137.681 37.947,136.795 38.288,137.793 38.755 C 144.774 42.023,148.458 50.640,145.755 57.380 C 142.970 64.323,134.312 67.105,127.943 63.104 C 125.728 61.712,125.165 61.302,124.013 60.240 C 123.410 59.684,122.413 58.836,121.797 58.355 C 121.181 57.874,120.437 57.109,120.144 56.657 C 119.589 55.800,119.343 55.559,119.687 56.208 C 120.133 57.051,120.816 57.771,122.262 58.922 C 123.204 59.672,124.318 60.786,125.184 61.845 C 125.954 62.786,127.071 64.092,127.667 64.747 C 132.078 69.593,134.396 73.018,136.105 77.213 C 137.673 81.060,138.376 82.266,141.059 85.714 C 142.539 87.616,143.725 88.952,147.029 92.444 C 152.267 97.981,154.950 99.255,161.333 99.238 C 170.069 99.215,176.483 95.466,178.841 89.005 C 179.116 88.254,179.628 87.101,179.981 86.444 C 180.334 85.787,180.911 84.403,181.265 83.369 C 181.772 81.885,181.982 81.469,182.260 81.399 C 182.453 81.351,182.612 81.222,182.613 81.114 C 182.615 81.005,182.747 80.315,182.907 79.579 C 183.197 78.248,183.232 66.792,182.949 65.703 C 182.895 65.494,182.771 64.594,182.675 63.703 C 182.578 62.812,182.429 61.746,182.343 61.333 C 182.257 60.921,182.060 59.871,181.904 59.000 C 181.748 58.129,181.487 57.079,181.324 56.667 C 181.161 56.254,180.896 55.467,180.737 54.917 C 180.394 53.736,178.670 50.173,178.037 49.336 C 177.394 48.487,177.288 48.357,176.899 47.951 C 176.706 47.749,176.301 47.208,176.001 46.750 C 175.700 46.292,175.366 45.842,175.258 45.750 C 175.151 45.658,174.755 45.133,174.380 44.583 C 173.320 43.030,170.913 40.894,169.548 40.294 C 169.292 40.182,169.046 40.050,169.000 40.002 C 168.550 39.524,166.801 38.919,165.755 38.879 C 162.819 38.767,158.895 38.447,156.886 38.157 C 152.941 37.587,144.287 37.330,140.605 37.674 M62.792 39.451 C 62.998 39.491,63.335 39.491,63.542 39.451 C 63.748 39.411,63.579 39.379,63.167 39.379 C 62.754 39.379,62.585 39.411,62.792 39.451 M131.625 39.451 C 131.831 39.491,132.169 39.491,132.375 39.451 C 132.581 39.411,132.412 39.379,132.000 39.379 C 131.587 39.379,131.419 39.411,131.625 39.451 M66.542 40.115 C 66.702 40.157,66.965 40.157,67.125 40.115 C 67.285 40.073,67.154 40.039,66.833 40.039 C 66.512 40.039,66.381 40.073,66.542 40.115 M128.042 40.115 C 128.202 40.157,128.465 40.157,128.625 40.115 C 128.785 40.073,128.654 40.039,128.333 40.039 C 128.012 40.039,127.881 40.073,128.042 40.115 M58.125 40.594 C 57.690 40.821,57.333 41.044,57.333 41.089 C 57.333 41.164,58.983 40.384,59.153 40.230 C 59.359 40.042,58.817 40.234,58.125 40.594 M136.333 40.417 C 136.563 40.548,136.825 40.655,136.917 40.655 C 137.008 40.655,136.896 40.548,136.667 40.417 C 136.438 40.286,136.175 40.178,136.083 40.178 C 135.992 40.178,136.104 40.286,136.333 40.417 M62.375 41.782 C 62.535 41.823,62.798 41.823,62.958 41.782 C 63.119 41.740,62.987 41.705,62.667 41.705 C 62.346 41.705,62.215 41.740,62.375 41.782 M132.208 41.782 C 132.369 41.823,132.631 41.823,132.792 41.782 C 132.952 41.740,132.821 41.705,132.500 41.705 C 132.179 41.705,132.048 41.740,132.208 41.782 M65.417 42.000 C 65.600 42.079,65.862 42.143,66.000 42.143 C 66.158 42.143,66.127 42.090,65.917 42.000 C 65.733 41.921,65.471 41.857,65.333 41.857 C 65.176 41.857,65.207 41.910,65.417 42.000 M129.250 42.000 C 129.040 42.090,129.009 42.143,129.167 42.143 C 129.304 42.143,129.567 42.079,129.750 42.000 C 129.960 41.910,129.991 41.857,129.833 41.857 C 129.696 41.857,129.433 41.921,129.250 42.000 M54.412 43.375 L 53.250 44.583 54.458 43.421 C 55.581 42.342,55.743 42.167,55.621 42.167 C 55.595 42.167,55.051 42.710,54.412 43.375 M66.667 42.417 C 66.896 42.548,67.158 42.655,67.250 42.655 C 67.342 42.655,67.229 42.548,67.000 42.417 C 66.771 42.286,66.508 42.178,66.417 42.178 C 66.325 42.178,66.438 42.286,66.667 42.417 M140.583 43.333 C 141.220 43.975,141.779 44.500,141.824 44.500 C 141.870 44.500,141.387 43.975,140.750 43.333 C 140.113 42.692,139.555 42.167,139.509 42.167 C 139.463 42.167,139.947 42.692,140.583 43.333 M59.125 42.678 C 58.781 42.859,58.500 43.045,58.500 43.091 C 58.500 43.165,59.816 42.550,59.986 42.396 C 60.178 42.223,59.677 42.386,59.125 42.678 M136.133 42.906 C 136.710 43.217,137.276 43.535,137.391 43.611 C 137.505 43.687,137.446 43.611,137.259 43.441 C 136.908 43.120,135.443 42.330,135.214 42.337 C 135.142 42.339,135.556 42.595,136.133 42.906 M123.450 43.375 C 122.998 43.987,122.693 44.513,122.943 44.250 C 123.252 43.925,124.016 42.833,123.934 42.833 C 123.888 42.833,123.670 43.077,123.450 43.375 M125.628 44.301 C 125.121 44.833,124.509 45.655,124.269 46.128 C 123.627 47.395,123.746 47.426,124.423 46.169 C 124.744 45.574,125.396 44.693,125.872 44.211 C 126.349 43.728,126.696 43.333,126.645 43.333 C 126.593 43.333,126.136 43.769,125.628 44.301 M56.613 44.542 L 55.556 45.583 56.570 44.678 C 57.127 44.180,57.655 43.711,57.742 43.636 C 57.829 43.561,57.848 43.500,57.785 43.500 C 57.722 43.500,57.194 43.969,56.613 44.542 M138.667 44.750 C 139.165 45.254,139.609 45.667,139.655 45.667 C 139.701 45.667,139.331 45.254,138.833 44.750 C 138.335 44.246,137.891 43.833,137.845 43.833 C 137.799 43.833,138.169 44.246,138.667 44.750 M69.757 44.671 C 70.028 44.994,70.385 45.444,70.549 45.671 C 70.837 46.068,70.837 46.063,70.550 45.534 C 70.387 45.232,70.030 44.782,69.759 44.534 L 69.265 44.083 69.757 44.671 M52.872 45.125 C 52.441 45.748,52.300 46.000,52.385 46.000 C 52.424 46.000,52.654 45.700,52.897 45.333 C 53.390 44.588,53.369 44.408,52.872 45.125 M55.039 46.292 C 54.607 46.915,54.467 47.167,54.551 47.167 C 54.590 47.167,54.821 46.867,55.064 46.500 C 55.557 45.755,55.535 45.575,55.039 46.292 M51.909 46.682 C 51.762 46.966,51.672 47.227,51.708 47.263 C 51.744 47.300,51.898 47.068,52.051 46.748 C 52.394 46.029,52.275 45.974,51.909 46.682 M143.345 47.083 C 143.345 47.175,143.452 47.438,143.583 47.667 C 143.714 47.896,143.822 48.008,143.822 47.917 C 143.822 47.825,143.714 47.563,143.583 47.333 C 143.452 47.104,143.345 46.992,143.345 47.083 M73.539 48.167 C 73.539 48.487,73.573 48.619,73.615 48.458 C 73.657 48.298,73.657 48.035,73.615 47.875 C 73.573 47.715,73.539 47.846,73.539 48.167 M121.539 48.167 C 121.539 48.487,121.573 48.619,121.615 48.458 C 121.657 48.298,121.657 48.035,121.615 47.875 C 121.573 47.715,121.539 47.846,121.539 48.167 M73.717 49.667 C 73.717 50.171,73.748 50.377,73.786 50.125 C 73.824 49.873,73.824 49.460,73.786 49.208 C 73.748 48.956,73.717 49.163,73.717 49.667 M121.379 49.667 C 121.379 50.079,121.411 50.248,121.451 50.042 C 121.491 49.835,121.491 49.498,121.451 49.292 C 121.411 49.085,121.379 49.254,121.379 49.667 M71.887 50.500 C 71.887 51.096,71.917 51.340,71.954 51.042 C 71.991 50.744,71.991 50.256,71.954 49.958 C 71.917 49.660,71.887 49.904,71.887 50.500 M123.218 50.583 C 123.219 51.133,123.250 51.338,123.287 51.039 C 123.325 50.739,123.324 50.289,123.286 50.039 C 123.248 49.788,123.217 50.033,123.218 50.583 M73.542 51.250 C 73.544 51.617,73.578 51.747,73.618 51.540 C 73.658 51.332,73.656 51.032,73.615 50.873 C 73.573 50.714,73.540 50.883,73.542 51.250 M121.539 51.167 C 121.539 51.487,121.573 51.619,121.615 51.458 C 121.657 51.298,121.657 51.035,121.615 50.875 C 121.573 50.715,121.539 50.846,121.539 51.167 M144.539 51.500 C 144.539 51.821,144.573 51.952,144.615 51.792 C 144.657 51.631,144.657 51.369,144.615 51.208 C 144.573 51.048,144.539 51.179,144.539 51.500 M142.059 52.583 C 142.059 53.408,142.087 53.767,142.122 53.380 C 142.157 52.993,142.157 52.318,142.123 51.880 C 142.088 51.442,142.060 51.758,142.059 52.583 M53.057 52.583 C 53.058 53.317,53.087 53.596,53.122 53.204 C 53.157 52.812,53.157 52.212,53.121 51.871 C 53.085 51.529,53.057 51.850,53.057 52.583 M73.033 53.450 C 72.787 54.254,72.906 54.373,73.167 53.583 C 73.277 53.250,73.334 52.945,73.295 52.906 C 73.255 52.866,73.137 53.111,73.033 53.450 M71.429 53.429 C 71.367 53.673,71.349 53.905,71.389 53.944 C 71.428 53.983,71.510 53.816,71.571 53.571 C 71.633 53.327,71.651 53.095,71.611 53.056 C 71.572 53.017,71.490 53.184,71.429 53.429 M123.520 53.167 C 123.517 53.304,123.618 53.642,123.744 53.917 C 124.039 54.560,124.043 54.261,123.750 53.500 C 123.626 53.179,123.523 53.029,123.520 53.167 M50.539 53.667 C 50.539 53.987,50.573 54.119,50.615 53.958 C 50.657 53.798,50.657 53.535,50.615 53.375 C 50.573 53.215,50.539 53.346,50.539 53.667 M122.345 54.417 C 122.345 54.508,122.452 54.771,122.583 55.000 C 122.714 55.229,122.822 55.342,122.822 55.250 C 122.822 55.158,122.714 54.896,122.583 54.667 C 122.452 54.438,122.345 54.325,122.345 54.417 M50.695 54.750 C 50.692 54.933,50.755 55.233,50.833 55.417 C 51.016 55.841,51.016 55.403,50.833 54.833 C 50.726 54.498,50.699 54.482,50.695 54.750 M141.533 55.617 C 141.287 56.420,141.406 56.540,141.667 55.750 C 141.777 55.417,141.834 55.112,141.795 55.072 C 141.755 55.033,141.637 55.278,141.533 55.617 M74.900 56.858 C 74.636 57.238,73.913 57.954,73.294 58.448 C 72.674 58.943,72.167 59.383,72.167 59.427 C 72.167 59.807,74.907 57.220,75.399 56.375 C 75.678 55.894,75.342 56.219,74.900 56.858 M125.803 57.625 C 126.076 57.969,126.509 58.438,126.765 58.667 C 127.020 58.896,126.824 58.615,126.328 58.042 C 125.332 56.891,125.025 56.648,125.803 57.625 M54.445 57.624 C 54.606 57.921,55.150 58.559,55.655 59.041 L 56.573 59.917 55.659 58.917 C 55.157 58.367,54.612 57.729,54.449 57.500 C 54.163 57.099,54.163 57.103,54.445 57.624 M70.658 57.792 L 70.083 58.417 70.708 57.842 C 71.052 57.526,71.333 57.245,71.333 57.217 C 71.333 57.090,71.192 57.210,70.658 57.792 M124.333 57.750 C 124.644 58.071,124.936 58.333,124.982 58.333 C 125.028 58.333,124.811 58.071,124.500 57.750 C 124.189 57.429,123.897 57.167,123.851 57.167 C 123.805 57.167,124.022 57.429,124.333 57.750 M68.575 58.375 L 67.917 59.083 68.625 58.425 C 69.284 57.812,69.410 57.667,69.284 57.667 C 69.257 57.667,68.938 57.985,68.575 58.375 M69.244 59.375 L 68.417 60.250 69.292 59.423 C 69.773 58.968,70.167 58.574,70.167 58.548 C 70.167 58.424,70.012 58.562,69.244 59.375 M125.750 59.333 C 126.201 59.792,126.608 60.167,126.654 60.167 C 126.700 60.167,126.368 59.792,125.917 59.333 C 125.465 58.875,125.058 58.500,125.013 58.500 C 124.967 58.500,125.299 58.875,125.750 59.333 M53.333 59.917 C 53.644 60.237,53.936 60.500,53.982 60.500 C 54.028 60.500,53.811 60.237,53.500 59.917 C 53.189 59.596,52.897 59.333,52.851 59.333 C 52.805 59.333,53.022 59.596,53.333 59.917 M141.575 60.042 L 140.917 60.750 141.625 60.091 C 142.284 59.478,142.410 59.333,142.284 59.333 C 142.257 59.333,141.938 59.652,141.575 60.042 M57.167 60.248 C 57.167 60.362,58.187 60.868,58.263 60.792 C 58.300 60.756,58.068 60.602,57.748 60.449 C 57.428 60.297,57.167 60.206,57.167 60.248 M137.333 60.500 C 137.012 60.676,136.810 60.823,136.883 60.826 C 137.060 60.836,138.000 60.347,138.000 60.246 C 138.000 60.137,137.990 60.140,137.333 60.500 M54.364 60.761 C 54.518 60.938,54.893 61.225,55.197 61.399 C 55.850 61.771,55.678 61.586,54.750 60.918 C 54.362 60.639,54.201 60.573,54.364 60.761 M66.167 61.500 C 65.846 61.676,65.643 61.823,65.717 61.826 C 65.893 61.836,66.833 61.347,66.833 61.246 C 66.833 61.137,66.824 61.140,66.167 61.500 M128.333 61.248 C 128.333 61.362,129.354 61.868,129.430 61.792 C 129.466 61.756,129.234 61.602,128.915 61.449 C 128.595 61.297,128.333 61.206,128.333 61.248 M60.958 61.454 C 61.256 61.491,61.744 61.491,62.042 61.454 C 62.340 61.417,62.096 61.387,61.500 61.387 C 60.904 61.387,60.660 61.417,60.958 61.454 M133.125 61.454 C 133.423 61.491,133.910 61.491,134.208 61.454 C 134.506 61.417,134.262 61.387,133.667 61.387 C 133.071 61.387,132.827 61.417,133.125 61.454 M56.500 62.083 C 56.729 62.214,56.992 62.322,57.083 62.322 C 57.175 62.322,57.063 62.214,56.833 62.083 C 56.604 61.952,56.342 61.845,56.250 61.845 C 56.158 61.845,56.271 61.952,56.500 62.083 M137.000 62.500 C 136.657 62.610,136.642 62.636,136.917 62.648 C 137.100 62.655,137.362 62.589,137.500 62.500 C 137.792 62.311,137.589 62.311,137.000 62.500 M62.208 62.782 C 62.369 62.823,62.631 62.823,62.792 62.782 C 62.952 62.740,62.821 62.705,62.500 62.705 C 62.179 62.705,62.048 62.740,62.208 62.782 M60.292 62.951 C 60.498 62.991,60.835 62.991,61.042 62.951 C 61.248 62.911,61.079 62.879,60.667 62.879 C 60.254 62.879,60.085 62.911,60.292 62.951 M134.125 62.951 C 134.331 62.991,134.669 62.991,134.875 62.951 C 135.081 62.911,134.912 62.879,134.500 62.879 C 134.087 62.879,133.919 62.911,134.125 62.951 M94.416 82.067 C 90.776 85.867,91.057 85.349,91.723 87.025 C 92.026 87.791,92.522 89.054,92.824 89.833 C 93.126 90.612,93.473 91.475,93.596 91.750 C 93.718 92.025,94.236 93.337,94.747 94.667 C 95.258 95.996,95.746 97.233,95.832 97.417 C 96.223 98.256,97.333 101.226,97.333 101.434 C 97.333 101.562,97.446 101.667,97.583 101.667 C 97.721 101.667,97.833 101.550,97.833 101.408 C 97.833 101.265,97.973 100.834,98.145 100.449 C 98.316 100.065,98.774 98.925,99.162 97.917 C 99.782 96.306,102.106 90.396,103.510 86.859 C 104.099 85.375,104.370 85.845,100.751 82.067 C 98.705 79.932,97.870 79.167,97.583 79.167 C 97.297 79.167,96.461 79.932,94.416 82.067 " stroke="none" fill="#a3540e" fill-rule="evenodd"></path><path id="path1" d="M89.590 8.132 C 89.530 8.192,89.167 8.255,88.782 8.273 C 86.814 8.362,84.360 8.530,83.917 8.605 C 83.642 8.652,83.229 8.710,83.000 8.735 C 81.038 8.944,77.007 9.734,76.461 10.017 C 76.301 10.099,76.030 10.167,75.857 10.167 C 75.683 10.167,75.214 10.286,74.813 10.431 C 74.412 10.577,73.992 10.712,73.880 10.732 C 73.768 10.752,73.629 10.815,73.572 10.873 C 73.514 10.930,73.362 10.937,73.234 10.887 C 73.105 10.838,73.000 10.881,73.000 10.982 C 73.000 11.084,72.944 11.158,72.875 11.147 C 71.793 10.976,72.455 11.592,73.966 12.163 C 75.676 12.809,77.068 13.489,78.333 14.297 C 78.837 14.619,79.850 15.091,80.583 15.347 C 82.989 16.184,84.990 16.992,86.297 17.654 C 87.288 18.156,87.985 18.369,89.333 18.583 C 90.296 18.736,91.871 19.012,92.833 19.198 C 95.110 19.636,99.899 19.671,101.917 19.265 C 102.650 19.117,104.224 18.846,105.413 18.663 C 107.238 18.381,107.783 18.224,108.896 17.655 C 110.230 16.973,112.149 16.194,114.583 15.347 C 115.317 15.091,116.329 14.619,116.833 14.297 C 118.106 13.485,119.305 12.895,121.072 12.214 C 121.903 11.893,122.635 11.549,122.697 11.448 C 122.827 11.242,122.281 10.800,121.961 10.852 C 121.845 10.871,121.638 10.845,121.500 10.795 C 119.884 10.205,119.071 9.981,118.391 9.939 C 118.193 9.927,118.070 9.855,118.116 9.781 C 118.162 9.706,118.099 9.662,117.975 9.684 C 117.688 9.734,116.136 9.489,115.917 9.358 C 115.825 9.304,115.638 9.239,115.500 9.214 C 114.782 9.084,113.020 8.814,112.583 8.767 C 112.308 8.738,111.708 8.668,111.250 8.612 C 110.792 8.556,109.667 8.463,108.750 8.405 C 107.833 8.347,106.746 8.261,106.333 8.214 C 105.193 8.083,89.715 8.007,89.590 8.132 M61.756 39.685 C 52.111 41.091,47.177 53.372,53.662 59.833 C 59.578 65.728,70.219 62.113,73.041 53.250 C 74.872 47.498,71.442 40.756,66.386 40.170 C 65.669 40.087,64.755 39.903,64.354 39.760 C 63.559 39.477,63.250 39.468,61.756 39.685 M130.750 39.765 C 130.383 39.904,129.538 40.082,128.871 40.158 C 121.641 40.989,119.264 51.384,124.792 58.000 C 132.855 67.650,147.116 61.305,144.085 49.417 C 142.593 43.564,135.068 38.117,130.750 39.765 M65.295 41.738 C 74.960 44.311,73.886 58.645,63.833 61.250 C 55.692 63.360,49.991 54.400,54.620 46.772 C 56.872 43.062,61.705 40.782,65.295 41.738 M134.110 41.899 C 142.529 44.151,145.146 55.677,138.262 60.190 C 133.633 63.225,127.064 60.975,124.327 55.417 C 120.579 47.808,126.357 39.824,134.110 41.899 M75.644 56.184 C 75.292 56.845,74.750 57.502,74.098 58.059 C 72.416 59.497,70.288 61.678,69.197 63.083 C 68.628 63.817,67.551 65.092,66.804 65.917 C 63.108 69.998,60.961 73.239,59.333 77.199 C 57.275 82.205,55.060 85.421,49.911 90.879 C 44.435 96.684,41.920 98.512,38.493 99.176 C 28.665 101.081,18.650 96.545,16.094 89.032 C 15.873 88.382,15.428 87.377,15.106 86.800 C 14.783 86.222,14.287 85.075,14.003 84.250 C 13.218 81.971,12.978 81.480,12.680 81.538 C 12.275 81.617,12.282 83.565,12.690 84.291 C 12.860 84.595,13.000 85.104,13.000 85.422 C 13.000 85.740,13.066 86.000,13.147 86.000 C 13.279 86.000,13.495 86.478,13.560 86.917 C 13.574 87.008,13.671 87.233,13.776 87.417 C 13.881 87.600,13.975 87.806,13.984 87.875 C 13.993 87.944,14.006 88.019,14.013 88.042 C 14.113 88.368,14.190 88.809,14.189 89.042 C 14.188 89.202,14.262 89.333,14.354 89.333 C 14.445 89.333,14.471 89.412,14.412 89.507 C 14.353 89.603,14.382 89.775,14.477 89.889 C 14.572 90.004,14.684 90.432,14.727 90.840 C 14.809 91.627,15.384 93.409,15.666 93.749 C 15.759 93.861,15.864 94.204,15.899 94.512 C 15.935 94.820,16.048 95.099,16.149 95.133 C 16.250 95.167,16.333 95.333,16.333 95.502 C 16.333 95.671,16.449 95.925,16.589 96.065 C 16.730 96.206,16.833 96.363,16.818 96.414 C 16.803 96.464,16.841 96.879,16.901 97.335 C 16.962 97.792,17.007 98.204,17.002 98.251 C 16.997 98.298,17.104 98.552,17.240 98.814 C 17.376 99.076,17.440 99.338,17.382 99.396 C 17.325 99.453,17.365 99.500,17.472 99.500 C 17.579 99.500,17.658 99.556,17.647 99.625 C 17.598 99.933,17.694 100.147,18.083 100.599 C 18.312 100.865,18.500 101.173,18.500 101.282 C 18.500 101.392,18.667 101.598,18.870 101.741 C 19.074 101.883,19.168 102.001,19.079 102.003 C 18.978 102.004,18.979 102.051,19.083 102.128 C 19.175 102.195,19.581 102.906,19.985 103.707 C 20.390 104.508,20.858 105.289,21.027 105.441 C 21.195 105.594,21.333 105.788,21.333 105.874 C 21.333 105.960,21.516 106.229,21.740 106.473 C 22.616 107.429,23.107 107.990,23.667 108.672 C 23.988 109.063,24.475 109.611,24.750 109.888 C 25.025 110.166,25.137 110.334,25.000 110.260 C 24.863 110.187,24.968 110.324,25.234 110.564 C 25.501 110.804,25.677 111.000,25.627 111.000 C 25.577 111.000,25.903 111.391,26.351 111.869 C 26.800 112.346,27.167 112.794,27.167 112.863 C 27.167 112.932,27.447 113.178,27.789 113.411 C 28.131 113.643,28.341 113.833,28.256 113.833 C 28.170 113.833,28.562 114.133,29.126 114.500 C 29.691 114.867,30.188 115.167,30.233 115.167 C 30.277 115.167,30.557 115.390,30.855 115.662 C 31.154 115.935,31.423 116.132,31.454 116.101 C 31.486 116.070,31.765 116.278,32.076 116.564 C 32.386 116.850,33.025 117.421,33.494 117.833 C 33.964 118.246,34.469 118.696,34.618 118.833 C 35.173 119.348,37.927 120.833,38.326 120.833 C 38.422 120.833,38.500 120.899,38.500 120.979 C 38.500 121.115,39.431 121.405,39.708 121.356 C 39.777 121.343,39.833 121.403,39.833 121.489 C 39.833 121.636,40.575 121.956,40.591 121.816 C 40.595 121.780,40.789 121.875,41.022 122.028 C 41.388 122.268,42.302 122.577,43.166 122.753 C 43.304 122.781,43.642 122.894,43.917 123.004 C 44.192 123.114,44.529 123.216,44.667 123.232 C 45.020 123.270,46.118 123.661,46.641 123.934 C 46.884 124.061,47.252 124.165,47.458 124.166 C 47.665 124.166,47.833 124.245,47.833 124.341 C 47.833 124.436,47.927 124.499,48.042 124.480 C 48.255 124.445,49.054 124.617,49.500 124.794 C 49.637 124.848,49.862 124.912,50.000 124.936 C 50.646 125.046,51.176 125.185,51.830 125.416 C 52.222 125.554,52.727 125.667,52.954 125.667 C 53.180 125.667,53.583 125.822,53.849 126.011 C 54.116 126.201,54.333 126.317,54.333 126.269 C 54.333 126.221,54.644 126.291,55.023 126.425 C 55.403 126.559,55.909 126.662,56.148 126.655 C 56.388 126.648,56.808 126.681,57.083 126.729 C 57.358 126.777,58.183 126.858,58.917 126.909 C 59.650 126.960,60.438 127.035,60.667 127.075 C 60.896 127.116,61.421 127.193,61.833 127.248 C 62.246 127.302,62.808 127.416,63.083 127.501 C 63.719 127.696,64.281 127.799,65.815 128.002 C 66.492 128.091,67.130 128.230,67.232 128.309 C 67.333 128.389,67.754 128.500,68.167 128.557 C 68.579 128.613,69.067 128.690,69.250 128.728 C 69.433 128.766,69.958 128.846,70.417 128.906 C 70.875 128.967,71.625 129.129,72.083 129.266 C 72.542 129.404,73.442 129.585,74.083 129.670 C 75.981 129.919,76.567 130.027,76.864 130.185 C 77.018 130.266,77.300 130.333,77.489 130.333 C 77.678 130.333,77.833 130.392,77.833 130.464 C 77.833 130.535,78.034 130.611,78.280 130.631 C 78.526 130.651,78.910 130.788,79.134 130.935 C 79.424 131.125,79.503 131.136,79.409 130.976 C 79.323 130.830,79.389 130.844,79.596 131.016 C 79.948 131.309,80.362 131.485,81.000 131.614 C 81.675 131.751,81.679 131.752,82.625 132.111 C 82.785 132.171,82.954 132.234,83.000 132.250 C 83.046 132.265,83.308 132.378,83.583 132.499 C 83.858 132.621,84.140 132.708,84.208 132.694 C 84.277 132.679,84.333 132.742,84.333 132.833 C 84.333 132.925,84.390 132.983,84.458 132.963 C 84.620 132.915,85.433 133.458,86.072 134.042 C 86.348 134.294,86.638 134.500,86.715 134.500 C 86.877 134.500,88.023 135.332,88.206 135.582 C 88.273 135.675,88.329 135.691,88.331 135.619 C 88.332 135.546,88.502 135.648,88.708 135.845 C 88.915 136.042,89.290 136.277,89.542 136.368 C 89.794 136.458,90.000 136.600,90.000 136.683 C 90.000 136.766,90.103 136.833,90.230 136.833 C 90.356 136.833,90.546 136.938,90.652 137.065 C 90.821 137.270,92.249 137.603,92.381 137.468 C 92.409 137.440,92.629 137.546,92.870 137.704 C 93.752 138.282,101.576 138.415,102.000 137.859 C 102.098 137.731,102.359 137.662,103.208 137.544 C 103.552 137.495,103.833 137.387,103.833 137.302 C 103.833 137.217,103.910 137.194,104.003 137.252 C 104.097 137.310,104.487 137.127,104.870 136.845 C 105.252 136.564,105.663 136.333,105.783 136.333 C 105.902 136.333,106.000 136.258,106.000 136.167 C 106.000 136.075,106.112 136.000,106.250 136.000 C 106.388 136.000,106.500 135.925,106.500 135.833 C 106.500 135.742,106.603 135.667,106.730 135.667 C 106.856 135.667,107.057 135.549,107.177 135.404 C 107.296 135.260,107.662 135.002,107.989 134.831 C 108.316 134.660,108.869 134.253,109.218 133.926 C 109.566 133.600,109.960 133.333,110.093 133.333 C 110.225 133.333,110.333 133.258,110.333 133.167 C 110.333 133.075,110.446 133.000,110.583 133.000 C 110.721 133.000,110.833 132.921,110.833 132.823 C 110.833 132.726,110.908 132.693,111.000 132.750 C 111.092 132.807,111.167 132.782,111.167 132.695 C 111.167 132.608,111.429 132.488,111.750 132.428 C 112.071 132.367,112.333 132.263,112.333 132.195 C 112.333 132.128,112.532 132.056,112.775 132.036 C 113.018 132.016,113.306 131.925,113.415 131.835 C 113.525 131.744,113.663 131.719,113.724 131.779 C 113.784 131.840,113.833 131.808,113.833 131.709 C 113.833 131.610,113.965 131.549,114.125 131.574 C 114.491 131.629,115.380 131.335,115.528 131.109 C 115.590 131.016,115.777 130.921,115.945 130.898 C 116.460 130.827,116.736 130.742,117.099 130.542 C 117.460 130.343,118.107 130.170,118.833 130.079 C 119.063 130.051,119.250 130.015,119.250 130.001 C 119.250 129.944,119.972 129.811,121.083 129.665 C 122.537 129.474,122.900 129.397,123.281 129.201 C 123.447 129.116,123.996 128.992,124.500 128.926 C 125.004 128.859,125.529 128.785,125.667 128.761 C 125.804 128.737,126.292 128.664,126.750 128.598 C 127.208 128.532,127.846 128.376,128.167 128.250 C 128.487 128.123,129.162 127.985,129.667 127.942 C 130.171 127.899,130.752 127.819,130.958 127.765 C 131.663 127.580,132.084 127.493,133.083 127.327 C 133.633 127.236,134.271 127.126,134.500 127.083 C 134.729 127.041,135.442 126.963,136.083 126.911 C 139.423 126.639,141.301 126.322,141.503 125.995 C 141.561 125.902,141.790 125.785,142.012 125.736 C 142.502 125.628,142.674 125.579,143.000 125.455 C 143.137 125.402,143.550 125.303,143.917 125.234 C 144.613 125.104,144.752 125.072,144.958 124.995 C 145.027 124.970,145.158 124.935,145.250 124.917 C 145.342 124.899,145.529 124.842,145.667 124.789 C 145.931 124.688,146.775 124.501,147.125 124.466 C 147.240 124.454,147.333 124.382,147.333 124.306 C 147.333 124.229,147.506 124.167,147.717 124.167 C 147.928 124.167,148.171 124.101,148.258 124.020 C 148.393 123.896,149.357 123.532,149.917 123.394 C 150.008 123.371,150.233 123.317,150.417 123.272 C 150.600 123.228,151.050 123.085,151.417 122.954 C 151.783 122.824,152.170 122.747,152.276 122.784 C 152.383 122.821,152.518 122.772,152.578 122.675 C 152.638 122.579,152.865 122.500,153.083 122.500 C 153.302 122.500,153.522 122.433,153.572 122.352 C 153.622 122.270,153.866 122.153,154.113 122.091 C 154.361 122.029,154.756 121.840,154.993 121.672 C 155.229 121.503,155.677 121.326,155.987 121.277 C 156.297 121.228,156.595 121.118,156.650 121.033 C 156.733 120.904,157.366 120.628,157.667 120.589 C 157.712 120.583,157.862 120.506,158.000 120.419 C 158.137 120.331,158.361 120.243,158.497 120.222 C 158.633 120.202,158.770 120.106,158.803 120.009 C 158.835 119.912,158.967 119.833,159.097 119.833 C 159.227 119.833,159.333 119.754,159.333 119.657 C 159.333 119.560,159.408 119.527,159.500 119.583 C 159.592 119.640,159.667 119.612,159.667 119.521 C 159.667 119.430,159.820 119.307,160.009 119.247 C 160.197 119.188,160.574 118.920,160.848 118.653 C 161.121 118.385,161.382 118.167,161.428 118.167 C 161.474 118.167,161.759 117.923,162.062 117.625 C 163.689 116.024,165.053 114.942,165.227 115.116 C 165.286 115.174,165.333 115.149,165.333 115.058 C 165.333 114.968,165.652 114.716,166.041 114.497 C 166.730 114.110,169.000 111.931,169.000 111.656 C 169.000 111.581,169.167 111.402,169.370 111.259 C 169.574 111.117,169.693 111.000,169.635 111.000 C 169.535 111.000,170.214 110.164,170.875 109.472 C 171.035 109.304,171.116 109.167,171.053 109.167 C 170.991 109.167,171.192 108.942,171.500 108.667 C 171.808 108.392,172.003 108.167,171.933 108.167 C 171.864 108.167,172.131 107.848,172.526 107.458 C 172.922 107.069,173.247 106.696,173.248 106.630 C 173.249 106.564,173.494 106.252,173.792 105.936 C 174.090 105.620,174.333 105.321,174.333 105.272 C 174.333 105.222,174.516 104.912,174.740 104.583 C 174.963 104.253,175.234 103.706,175.342 103.367 C 175.449 103.028,175.622 102.675,175.727 102.583 C 175.831 102.491,176.061 102.154,176.238 101.833 C 176.415 101.512,176.696 101.129,176.863 100.980 C 177.030 100.832,177.167 100.631,177.167 100.534 C 177.167 100.437,177.279 100.245,177.416 100.108 C 177.553 99.971,177.691 99.722,177.724 99.554 C 177.757 99.387,177.827 99.138,177.882 99.000 C 177.936 98.862,178.108 98.188,178.264 97.500 C 178.421 96.813,178.613 96.179,178.691 96.092 C 178.769 96.005,178.833 95.770,178.833 95.570 C 178.833 95.371,178.946 95.114,179.083 95.000 C 179.221 94.886,179.333 94.638,179.333 94.450 C 179.333 94.018,179.695 93.000,179.849 93.000 C 179.950 93.000,180.070 92.676,180.281 91.833 C 180.316 91.696,180.382 91.283,180.429 90.917 C 180.476 90.550,180.621 90.019,180.752 89.736 C 180.882 89.454,181.030 88.895,181.081 88.495 C 181.131 88.094,181.240 87.724,181.323 87.673 C 181.406 87.622,181.526 87.356,181.590 87.082 C 181.654 86.808,181.803 86.428,181.921 86.238 C 182.039 86.048,182.157 85.636,182.184 85.321 C 182.210 85.007,182.341 84.619,182.475 84.458 C 182.609 84.298,182.660 84.167,182.589 84.167 C 182.517 84.167,182.532 84.073,182.622 83.958 C 182.927 83.567,182.893 81.679,182.578 81.558 C 182.218 81.420,182.139 81.561,181.404 83.662 C 181.067 84.627,180.505 85.948,180.157 86.596 C 179.808 87.245,179.362 88.258,179.165 88.846 C 177.738 93.120,173.875 96.684,168.824 98.387 C 165.372 99.552,160.304 99.880,156.664 99.174 C 153.440 98.549,150.378 96.348,145.498 91.149 C 140.026 85.320,138.063 82.524,136.087 77.750 C 135.018 75.166,134.508 74.099,133.859 73.092 C 132.635 71.189,130.516 68.375,129.022 66.667 C 128.100 65.612,126.640 63.887,125.778 62.833 C 124.916 61.779,123.631 60.392,122.922 59.750 C 120.531 57.587,119.854 56.864,119.424 56.014 C 118.967 55.112,118.669 54.927,118.664 55.542 C 118.662 55.748,118.474 56.625,118.247 57.491 C 118.019 58.357,117.832 59.257,117.830 59.491 C 117.821 60.845,116.089 66.860,115.471 67.683 C 114.679 68.739,113.060 70.387,112.333 70.876 C 111.921 71.154,111.358 71.592,111.083 71.849 C 110.542 72.354,109.117 73.494,106.750 75.314 C 104.010 77.421,102.524 79.304,101.755 81.643 L 101.461 82.536 102.607 83.727 C 104.011 85.185,104.218 85.529,104.002 86.037 C 103.913 86.246,103.424 87.504,102.915 88.833 C 102.407 90.162,101.921 91.400,101.836 91.583 C 101.751 91.767,101.259 93.004,100.742 94.333 C 100.226 95.662,99.408 97.763,98.924 99.000 C 98.441 100.237,98.000 101.381,97.944 101.542 C 97.889 101.702,97.727 101.833,97.583 101.833 C 97.440 101.833,97.277 101.702,97.220 101.542 C 97.025 100.986,95.967 98.240,95.085 96.000 C 94.598 94.763,93.552 92.100,92.761 90.083 C 91.970 88.067,91.251 86.246,91.163 86.037 C 90.949 85.529,91.158 85.183,92.554 83.733 L 93.693 82.549 93.517 81.900 C 92.902 79.631,91.261 77.511,88.417 75.311 C 87.592 74.673,86.343 73.686,85.641 73.117 C 84.940 72.549,83.976 71.783,83.499 71.417 C 80.676 69.245,79.417 67.641,78.776 65.402 C 78.542 64.585,78.194 63.392,78.003 62.750 C 77.811 62.108,77.545 60.866,77.412 59.989 C 77.278 59.112,77.018 57.806,76.834 57.087 C 76.650 56.368,76.500 55.642,76.500 55.473 C 76.500 54.903,76.189 55.162,75.644 56.184 " stroke="none" fill="#f3e4cd" fill-rule="evenodd"></path><path id="path2" d="M51.250 8.604 C 50.975 8.642,50.450 8.746,50.083 8.836 C 49.717 8.925,48.667 9.075,47.750 9.168 C 44.638 9.484,42.346 9.815,42.006 9.997 C 41.819 10.097,41.667 10.149,41.667 10.114 C 41.667 10.078,41.085 10.151,40.375 10.275 C 39.665 10.400,38.333 10.610,37.417 10.742 C 36.500 10.873,35.262 11.069,34.667 11.175 C 33.896 11.314,31.684 11.341,27.000 11.270 C 20.794 11.175,18.646 11.034,15.250 10.496 C 14.700 10.409,13.425 10.293,12.417 10.239 C 11.408 10.184,10.208 10.040,9.750 9.918 C 8.093 9.477,4.988 9.253,4.161 9.515 C 2.732 9.967,2.847 11.483,4.403 12.697 C 4.869 13.061,5.896 13.985,6.685 14.751 C 8.364 16.380,9.456 16.940,12.167 17.560 C 14.112 18.006,14.661 18.029,22.583 18.011 C 26.892 18.002,31.354 18.072,32.500 18.167 C 33.646 18.262,36.083 18.410,37.917 18.495 C 39.750 18.581,41.685 18.734,42.217 18.835 C 42.749 18.937,44.249 19.080,45.550 19.152 C 47.516 19.262,48.354 19.400,50.500 19.967 C 51.921 20.343,54.081 20.883,55.301 21.168 C 63.802 23.150,66.827 25.240,72.546 33.085 C 73.348 34.184,74.485 35.739,75.073 36.541 C 77.932 40.438,78.675 46.581,77.050 52.890 C 76.584 54.700,76.600 55.339,77.165 57.417 C 77.339 58.058,77.563 59.181,77.661 59.911 C 77.867 61.440,77.958 61.806,78.856 64.750 C 79.763 67.720,80.598 68.857,83.571 71.167 C 84.102 71.579,85.110 72.385,85.810 72.957 C 86.510 73.529,87.758 74.512,88.583 75.141 C 91.341 77.245,93.375 79.923,93.773 81.973 L 93.881 82.530 95.568 80.848 C 97.654 78.770,97.528 78.770,99.578 80.828 L 101.233 82.489 101.504 81.620 C 102.221 79.319,103.839 77.258,106.583 75.147 C 108.956 73.322,110.376 72.186,110.917 71.681 C 111.192 71.424,111.855 70.895,112.391 70.507 C 114.494 68.980,115.483 67.528,116.322 64.736 C 117.223 61.740,117.303 61.414,117.506 59.911 C 117.604 59.181,117.827 58.058,118.002 57.417 C 118.545 55.419,118.579 54.661,118.194 53.216 C 116.512 46.919,117.236 40.443,120.054 36.591 C 125.333 29.375,126.255 28.227,127.991 26.707 C 131.284 23.824,134.092 22.514,139.866 21.168 C 141.085 20.883,143.246 20.343,144.667 19.967 C 146.813 19.400,147.651 19.262,149.616 19.152 C 150.918 19.080,152.418 18.937,152.950 18.835 C 153.482 18.734,155.417 18.581,157.250 18.495 C 159.083 18.410,161.521 18.262,162.667 18.167 C 163.813 18.072,168.313 18.000,172.667 18.007 C 180.862 18.019,181.305 17.997,183.250 17.492 C 186.091 16.753,187.051 16.225,189.023 14.316 C 189.723 13.638,190.679 12.732,191.148 12.304 C 193.697 9.971,190.401 8.503,185.667 9.863 C 185.346 9.955,183.958 10.132,182.583 10.257 C 179.201 10.563,175.666 10.982,175.475 11.099 C 175.211 11.261,160.876 11.333,160.250 11.175 C 159.883 11.083,159.246 10.962,158.833 10.907 C 157.779 10.767,154.521 10.263,153.471 10.078 C 153.182 10.027,152.873 9.941,152.786 9.887 C 152.604 9.775,149.909 9.417,147.333 9.164 C 146.371 9.069,145.321 8.900,145.000 8.787 C 144.188 8.503,133.866 8.504,132.250 8.789 C 131.608 8.902,130.596 9.065,130.000 9.152 C 128.567 9.360,127.318 9.643,126.961 9.840 C 126.801 9.928,126.581 10.000,126.472 10.000 C 126.362 10.000,125.967 10.142,125.594 10.316 C 125.222 10.491,124.529 10.757,124.055 10.909 C 123.570 11.064,123.087 11.347,122.950 11.555 C 122.804 11.779,122.317 12.048,121.729 12.233 C 120.403 12.648,118.293 13.643,116.984 14.470 C 116.391 14.845,115.271 15.374,114.494 15.646 C 111.864 16.568,110.087 17.286,108.972 17.880 C 107.821 18.492,107.532 18.566,103.917 19.172 C 98.112 20.145,95.679 20.062,88.194 18.640 C 87.706 18.547,86.806 18.205,86.194 17.881 C 85.122 17.312,81.483 15.852,80.056 15.419 C 79.674 15.303,78.810 14.864,78.137 14.445 C 76.731 13.568,74.828 12.663,73.500 12.238 C 72.956 12.064,72.361 11.720,72.036 11.391 C 71.734 11.087,71.434 10.851,71.369 10.867 C 71.133 10.926,70.187 10.641,69.564 10.324 C 69.215 10.146,68.808 10.000,68.659 10.000 C 68.511 10.000,68.334 9.945,68.266 9.878 C 68.112 9.723,66.581 9.366,65.167 9.154 C 64.571 9.064,63.671 8.906,63.167 8.802 C 62.288 8.621,52.339 8.456,51.250 8.604 " stroke="none" fill="#fb8404" fill-rule="evenodd"></path><path id="path3" d="M6.833 18.019 C 4.491 18.163,3.285 18.346,1.978 18.757 C 1.553 18.891,1.105 19.000,0.983 19.000 C 0.569 19.000,0.000 19.856,-0.000 20.479 C -0.000 21.505,0.574 21.831,2.401 21.843 C 3.900 21.853,4.386 21.919,6.500 22.397 C 7.096 22.532,8.296 22.801,9.167 22.996 C 10.037 23.190,11.200 23.453,11.750 23.579 C 13.584 24.000,16.072 24.537,17.083 24.730 C 18.655 25.030,18.758 25.140,18.118 25.840 C 17.824 26.161,17.096 26.983,16.500 27.666 C 15.904 28.349,15.304 29.026,15.167 29.171 C 15.029 29.315,14.467 29.948,13.917 30.577 C 13.367 31.206,12.570 32.102,12.146 32.568 C 11.722 33.035,11.161 33.679,10.899 34.000 C 10.638 34.321,10.104 34.921,9.714 35.333 C 8.688 36.417,8.704 38.153,9.751 39.263 L 10.289 39.833 14.889 39.833 C 18.395 39.833,19.658 39.778,20.203 39.599 C 20.676 39.443,22.073 39.333,24.342 39.274 C 26.226 39.224,27.975 39.105,28.228 39.008 C 28.481 38.912,29.340 38.832,30.136 38.831 C 31.938 38.828,36.531 38.438,38.764 38.098 C 43.636 37.355,54.044 37.316,56.995 38.030 C 58.044 38.283,58.103 38.395,57.380 38.762 C 52.102 41.439,48.810 46.374,48.550 52.000 C 48.137 60.967,56.271 66.978,65.083 64.217 C 66.309 63.833,69.697 61.625,71.167 60.253 C 71.671 59.783,72.586 59.004,73.201 58.522 C 78.672 54.240,79.268 42.432,74.341 35.919 C 73.647 35.001,72.483 33.425,71.755 32.417 C 66.756 25.492,62.972 23.008,54.750 21.258 C 54.017 21.102,52.131 20.636,50.560 20.223 C 48.075 19.570,47.372 19.454,45.144 19.329 C 43.736 19.250,42.171 19.112,41.667 19.022 C 41.162 18.932,39.475 18.810,37.917 18.750 C 36.358 18.690,34.483 18.573,33.750 18.489 C 33.017 18.405,28.947 18.334,24.707 18.331 C 18.971 18.326,16.497 18.262,15.041 18.080 C 12.939 17.818,10.425 17.799,6.833 18.019 M180.000 18.090 C 178.934 18.232,175.857 18.306,170.583 18.319 C 166.275 18.329,162.150 18.405,161.417 18.489 C 160.683 18.573,158.808 18.690,157.250 18.750 C 155.692 18.810,154.004 18.932,153.500 19.022 C 152.996 19.112,151.431 19.250,150.023 19.329 C 147.795 19.454,147.091 19.570,144.606 20.223 C 143.035 20.636,140.775 21.203,139.583 21.483 C 131.081 23.483,128.808 25.144,121.977 34.353 C 119.106 38.223,118.809 38.810,118.081 42.060 C 116.585 48.736,118.169 55.560,121.878 58.424 C 122.449 58.865,123.410 59.681,124.013 60.238 C 129.389 65.203,135.564 66.295,140.824 63.213 C 149.762 57.974,147.965 43.517,137.782 38.750 C 137.052 38.408,137.120 38.284,138.173 38.029 C 141.093 37.323,151.581 37.362,156.401 38.097 C 158.636 38.438,163.228 38.828,165.031 38.831 C 165.827 38.832,166.685 38.912,166.939 39.008 C 167.192 39.105,168.940 39.224,170.824 39.274 C 173.094 39.333,174.491 39.443,174.964 39.599 C 175.509 39.778,176.772 39.833,180.278 39.833 L 184.877 39.833 185.403 39.276 C 186.821 37.773,186.518 36.367,184.250 33.929 C 184.158 33.830,183.828 33.450,183.515 33.083 C 183.203 32.717,182.367 31.779,181.657 31.000 C 180.947 30.221,180.153 29.325,179.892 29.010 C 179.630 28.694,179.037 28.019,178.573 27.510 C 176.332 25.049,176.492 25.307,177.042 25.043 C 177.248 24.944,177.829 24.783,178.333 24.686 C 179.188 24.521,180.919 24.143,183.500 23.558 C 185.743 23.049,187.613 22.647,188.480 22.487 C 188.973 22.396,189.529 22.240,189.716 22.140 C 189.902 22.041,191.021 21.920,192.202 21.872 C 194.744 21.769,195.167 21.575,195.167 20.510 C 195.167 19.775,194.642 19.000,194.144 19.000 C 193.961 19.000,193.676 18.928,193.511 18.839 C 192.035 18.049,183.753 17.590,180.000 18.090 M274.583 31.363 C 273.575 31.445,272.206 31.553,271.542 31.604 L 270.333 31.695 270.333 32.420 C 270.333 33.219,270.346 33.228,271.715 33.414 C 272.958 33.583,273.619 33.935,274.124 34.698 L 274.583 35.392 274.583 48.609 L 274.583 61.826 274.147 62.262 C 273.819 62.590,273.470 62.726,272.731 62.813 C 271.460 62.963,271.333 63.057,271.333 63.843 L 271.333 64.500 276.750 64.500 L 282.167 64.500 282.167 63.753 C 282.167 63.072,282.126 62.998,281.708 62.912 C 280.037 62.569,279.526 62.308,279.110 61.585 C 278.969 61.341,278.894 57.170,278.833 46.250 L 278.750 31.250 277.583 31.232 C 276.942 31.222,275.592 31.281,274.583 31.363 M366.333 31.365 C 365.371 31.445,364.040 31.552,363.375 31.603 L 362.167 31.695 362.167 32.423 C 362.167 33.228,362.098 33.191,363.986 33.396 C 364.845 33.489,365.451 33.894,365.917 34.684 C 366.311 35.353,366.536 60.294,366.161 61.688 C 365.958 62.440,365.309 62.833,364.269 62.833 C 363.313 62.833,363.167 62.958,363.167 63.768 L 363.167 64.500 368.500 64.500 L 373.833 64.500 373.833 63.753 C 373.833 63.073,373.793 62.998,373.375 62.910 C 371.915 62.605,371.460 62.418,371.079 61.964 L 370.667 61.474 370.667 54.936 C 370.667 48.416,370.668 48.397,371.042 47.894 C 372.643 45.740,375.920 44.741,377.642 45.881 C 379.336 47.002,379.500 47.844,379.500 55.422 C 379.500 62.680,379.456 62.833,377.352 62.833 C 376.307 62.833,376.167 62.944,376.167 63.768 L 376.167 64.500 381.500 64.500 L 386.833 64.500 386.833 63.768 C 386.833 63.005,386.672 62.833,385.956 62.833 C 385.369 62.833,384.230 62.188,384.026 61.740 C 383.891 61.444,383.833 59.398,383.833 54.919 C 383.833 48.173,383.744 47.166,383.008 45.583 C 381.249 41.804,375.514 41.603,371.596 45.184 L 370.667 46.033 370.667 38.800 C 370.667 33.396,370.616 31.516,370.467 31.367 C 370.242 31.142,369.013 31.141,366.333 31.365 M219.309 33.352 C 203.936 35.335,202.299 59.826,217.214 64.676 C 226.197 67.597,235.379 61.174,236.340 51.295 C 237.432 40.074,229.770 32.002,219.309 33.352 M293.833 38.175 L 293.833 42.350 294.790 42.300 C 295.595 42.258,295.756 42.197,295.806 41.917 C 295.944 41.150,297.393 38.484,298.149 37.606 C 299.564 35.963,299.894 35.833,302.661 35.833 L 304.833 35.833 304.833 48.433 C 304.833 63.534,305.090 62.329,301.794 62.681 C 299.768 62.898,299.833 62.863,299.833 63.745 L 299.833 64.500 307.250 64.500 L 314.667 64.500 314.667 63.692 L 314.667 62.884 313.249 62.686 C 309.402 62.147,309.675 63.258,309.670 48.125 L 309.667 35.833 311.923 35.833 C 314.584 35.833,315.028 35.990,316.219 37.351 C 317.123 38.385,318.437 40.642,318.708 41.625 L 318.902 42.333 319.868 42.333 L 320.833 42.333 320.833 38.167 L 320.833 34.000 307.333 34.000 L 293.833 34.000 293.833 38.175 M224.520 35.816 C 229.889 37.868,232.489 47.055,230.135 55.663 C 227.464 65.434,216.480 65.872,213.323 56.333 C 211.780 51.671,212.090 44.883,214.054 40.327 C 215.758 36.375,220.562 34.304,224.520 35.816 M64.693 39.665 C 65.275 39.847,66.096 39.997,66.519 39.998 C 70.262 40.008,74.230 45.775,73.747 50.500 C 72.670 61.046,60.379 66.820,53.514 60.007 C 46.480 53.026,52.645 39.757,63.110 39.354 C 63.400 39.342,64.112 39.482,64.693 39.665 M134.822 39.775 C 143.880 42.126,147.823 53.951,141.594 60.083 C 134.484 67.083,121.376 60.252,121.445 49.583 C 121.475 44.882,125.140 40.018,128.667 39.999 C 129.079 39.997,129.867 39.847,130.417 39.665 C 131.537 39.295,133.127 39.335,134.822 39.775 M170.833 41.056 C 170.833 41.082,171.056 41.269,171.329 41.470 C 171.620 41.686,171.788 41.742,171.736 41.607 C 171.662 41.415,170.833 40.909,170.833 41.056 M22.977 41.994 C 22.760 42.175,22.643 42.325,22.715 42.328 C 22.788 42.331,23.008 42.183,23.205 42.000 C 23.666 41.570,23.491 41.566,22.977 41.994 M62.417 41.834 C 52.002 43.400,49.618 58.217,59.322 61.067 C 69.753 64.131,76.878 47.339,67.142 42.636 C 65.430 41.809,64.093 41.582,62.417 41.834 M129.750 41.981 C 124.531 43.582,122.028 48.824,123.964 54.101 C 127.893 64.813,142.524 63.104,141.952 52.000 C 141.625 45.661,135.132 40.330,129.750 41.981 M329.463 42.997 C 323.517 44.865,320.616 52.517,323.327 59.180 C 326.300 66.483,336.397 67.312,340.787 60.613 C 341.196 59.988,341.506 59.455,341.474 59.429 C 341.298 59.285,339.871 58.500,339.786 58.500 C 339.730 58.500,339.402 58.925,339.057 59.445 C 337.552 61.713,336.106 62.558,333.750 62.549 C 329.692 62.534,326.898 58.993,326.839 53.792 L 326.833 53.333 333.941 53.333 L 341.048 53.333 340.947 51.708 C 340.634 46.685,338.829 44.034,334.974 42.935 C 333.669 42.563,330.739 42.596,329.463 42.997 M351.250 42.931 C 341.834 45.448,340.802 61.205,349.833 64.549 C 354.188 66.162,359.793 64.095,361.903 60.099 C 362.518 58.935,360.923 58.151,360.169 59.247 C 356.187 65.035,349.458 62.993,348.483 55.700 C 347.645 49.432,350.052 44.409,353.879 44.442 C 356.002 44.461,356.554 45.065,356.099 46.877 C 355.571 48.984,355.898 50.265,357.090 50.764 C 361.570 52.636,362.590 45.840,358.167 43.591 C 356.367 42.676,353.299 42.383,351.250 42.931 M237.833 43.961 L 237.833 44.755 238.683 45.057 C 240.447 45.683,240.629 46.004,242.530 51.833 C 242.994 53.254,244.145 56.742,245.089 59.583 L 246.806 64.750 247.799 64.799 C 248.496 64.834,248.816 64.784,248.872 64.632 C 248.916 64.514,250.176 61.096,251.672 57.038 C 253.168 52.979,254.445 49.717,254.509 49.788 C 254.573 49.859,255.004 50.967,255.468 52.250 C 260.468 66.101,259.908 64.865,261.145 64.799 C 262.219 64.742,261.999 65.130,263.250 61.083 C 263.675 59.708,264.089 58.433,264.169 58.250 C 264.250 58.067,264.918 56.117,265.653 53.917 C 267.748 47.653,268.007 46.953,268.447 46.369 C 268.964 45.683,270.027 45.002,270.768 44.881 C 271.321 44.792,271.333 44.772,271.333 43.978 L 271.333 43.167 267.167 43.167 L 263.000 43.167 263.000 43.977 L 263.000 44.788 263.731 44.888 C 264.132 44.943,264.742 45.154,265.084 45.356 L 265.708 45.724 265.616 46.654 C 265.519 47.639,265.356 48.206,263.836 52.833 C 263.309 54.438,262.707 56.295,262.498 56.962 C 262.289 57.628,262.084 58.140,262.043 58.098 C 262.001 58.057,260.782 54.811,259.334 50.886 L 256.700 43.750 255.495 43.750 L 254.289 43.750 253.466 46.083 C 253.014 47.367,252.230 49.579,251.724 51.000 C 251.219 52.421,250.440 54.624,249.993 55.896 C 249.547 57.167,249.148 58.240,249.108 58.280 C 249.068 58.320,248.834 57.692,248.587 56.885 C 248.341 56.077,247.966 54.892,247.755 54.250 C 247.544 53.608,247.167 52.408,246.919 51.583 C 246.308 49.556,246.009 48.587,245.662 47.500 C 245.019 45.490,245.195 45.000,246.561 45.000 C 247.361 45.000,247.500 44.849,247.500 43.982 L 247.500 43.167 242.667 43.167 L 237.833 43.167 237.833 43.961 M334.077 44.980 C 335.398 45.862,336.325 48.081,336.331 50.375 L 336.333 51.333 331.583 51.333 C 327.893 51.333,326.834 51.287,326.837 51.125 C 326.917 46.495,331.069 42.971,334.077 44.980 M176.333 47.250 C 176.617 47.663,176.887 48.000,176.933 48.000 C 176.979 48.000,176.784 47.663,176.500 47.250 C 176.216 46.837,175.946 46.500,175.901 46.500 C 175.855 46.500,176.050 46.837,176.333 47.250 M11.899 72.000 C 11.899 73.237,11.925 73.744,11.957 73.125 C 11.989 72.506,11.989 71.494,11.957 70.875 C 11.925 70.256,11.899 70.762,11.899 72.000 M183.232 72.083 C 183.233 73.367,183.259 73.870,183.291 73.201 C 183.322 72.532,183.322 71.482,183.290 70.868 C 183.258 70.253,183.232 70.800,183.232 72.083 M321.750 81.337 C 321.200 81.407,320.137 81.472,319.389 81.482 C 317.585 81.506,317.500 81.548,317.500 82.413 L 317.500 83.124 318.806 83.290 C 321.853 83.679,321.667 82.684,321.667 98.550 L 321.667 111.661 321.208 112.171 C 320.819 112.604,320.587 112.698,319.667 112.799 L 318.583 112.917 318.533 113.708 L 318.482 114.500 323.824 114.500 L 329.167 114.500 329.167 113.667 C 329.167 112.835,329.166 112.833,328.616 112.833 C 326.535 112.833,326.002 111.881,326.001 108.160 L 326.000 105.571 326.799 104.784 L 327.599 103.996 329.424 106.491 C 330.428 107.863,332.110 110.227,333.161 111.743 L 335.072 114.500 338.369 114.500 L 341.667 114.500 341.667 113.667 C 341.667 112.869,341.647 112.833,341.208 112.832 C 339.421 112.829,338.778 112.197,334.500 106.240 C 333.996 105.538,333.471 104.828,333.333 104.662 C 333.196 104.496,332.933 104.153,332.750 103.899 C 332.030 102.902,331.097 101.747,330.968 101.694 C 330.624 101.553,330.961 101.106,332.628 99.490 C 335.465 96.740,336.310 96.132,338.565 95.225 L 339.917 94.681 339.967 93.924 L 340.018 93.167 335.250 93.167 L 330.482 93.167 330.533 93.946 L 330.583 94.725 331.500 94.912 C 334.032 95.428,334.002 95.497,329.011 100.543 L 326.083 103.504 326.000 92.377 L 325.917 81.250 324.333 81.230 C 323.462 81.219,322.300 81.267,321.750 81.337 M232.667 84.727 L 232.667 85.620 233.471 85.716 C 235.332 85.936,236.330 86.968,237.051 89.417 C 237.836 92.084,238.826 95.585,239.017 96.377 C 239.101 96.721,239.363 97.659,239.600 98.460 C 239.836 99.261,240.212 100.592,240.435 101.417 C 240.658 102.242,240.986 103.404,241.163 104.000 C 241.540 105.265,242.622 109.063,243.418 111.917 C 243.725 113.017,244.043 114.142,244.125 114.417 C 244.270 114.905,244.299 114.917,245.345 114.917 L 246.417 114.917 246.933 113.417 C 247.216 112.592,247.493 111.804,247.548 111.667 C 247.603 111.529,247.987 110.404,248.401 109.167 C 248.816 107.929,249.799 105.042,250.586 102.750 C 251.373 100.458,252.516 97.102,253.125 95.292 C 253.735 93.482,254.282 92.057,254.341 92.125 C 254.400 92.194,255.143 94.388,255.992 97.000 C 256.840 99.612,258.118 103.513,258.830 105.667 C 259.542 107.821,260.518 110.805,261.000 112.299 L 261.876 115.014 262.979 114.965 L 264.083 114.917 264.441 113.833 C 264.638 113.237,265.004 112.075,265.254 111.250 C 265.505 110.425,265.879 109.225,266.086 108.583 C 266.293 107.942,266.664 106.742,266.911 105.917 C 267.158 105.092,267.422 104.229,267.498 104.000 C 267.574 103.771,267.839 102.908,268.087 102.083 C 268.335 101.258,268.747 99.908,269.003 99.083 C 269.258 98.258,269.734 96.701,270.062 95.623 C 270.389 94.546,270.915 92.821,271.230 91.790 C 271.545 90.760,271.853 89.729,271.915 89.500 C 272.470 87.435,273.944 86.023,275.893 85.693 L 276.583 85.576 276.634 84.704 L 276.684 83.833 271.009 83.833 L 265.333 83.833 265.333 84.726 L 265.333 85.618 266.421 85.720 C 267.629 85.833,268.753 86.267,269.230 86.805 C 269.702 87.336,269.349 89.157,267.499 95.750 C 267.216 96.758,266.842 98.108,266.669 98.750 C 266.495 99.392,266.080 100.854,265.745 102.000 C 265.411 103.146,264.978 104.665,264.785 105.375 C 264.293 107.176,264.502 107.564,262.299 100.750 C 262.122 100.200,261.912 99.600,261.833 99.417 C 261.755 99.233,261.492 98.446,261.250 97.667 C 261.008 96.888,260.744 96.100,260.663 95.917 C 260.583 95.733,260.319 94.946,260.075 94.167 C 259.542 92.461,259.179 91.366,258.996 90.917 C 258.921 90.733,258.429 89.233,257.902 87.583 C 256.757 83.998,256.866 84.166,255.688 84.169 C 254.369 84.173,254.589 83.739,252.019 91.418 C 249.619 98.590,247.221 105.721,247.061 106.167 C 247.011 106.304,246.787 105.779,246.564 105.000 C 246.340 104.221,246.009 103.077,245.828 102.458 C 245.182 100.244,244.837 99.048,244.159 96.667 C 243.780 95.337,243.370 93.912,243.248 93.500 C 242.965 92.547,241.859 88.604,241.659 87.833 C 241.247 86.243,241.638 85.878,243.925 85.717 L 245.333 85.617 245.333 84.725 L 245.333 83.833 239.000 83.833 L 232.667 83.833 232.667 84.727 M286.083 92.663 C 275.152 94.158,273.836 111.080,284.369 114.708 C 286.653 115.495,290.429 115.158,292.696 113.965 C 299.339 110.468,300.112 98.904,294.000 94.458 C 291.938 92.958,288.924 92.274,286.083 92.663 M349.250 92.602 C 345.418 93.140,343.245 95.429,343.254 98.917 C 343.263 102.220,344.817 103.773,349.750 105.412 C 354.287 106.919,355.650 108.263,354.999 110.587 C 353.676 115.311,346.208 113.292,344.584 107.772 C 344.384 107.091,344.372 107.083,343.524 107.033 L 342.667 106.983 342.667 109.968 C 342.667 111.610,342.715 113.305,342.774 113.734 L 342.881 114.515 343.815 114.466 C 344.703 114.419,344.758 114.391,344.904 113.893 L 345.059 113.369 345.904 113.825 C 351.891 117.051,358.898 113.817,358.640 107.948 C 358.501 104.793,356.687 103.113,351.583 101.412 C 347.764 100.138,346.786 99.320,346.786 97.395 C 346.786 96.130,347.217 95.510,348.667 94.691 C 350.942 93.405,354.568 95.466,355.589 98.625 L 355.872 99.500 356.771 99.500 L 357.671 99.500 357.592 98.875 C 357.548 98.531,357.469 97.067,357.416 95.621 C 357.297 92.390,357.336 92.500,356.320 92.500 C 355.594 92.500,355.482 92.551,355.260 92.981 L 355.011 93.463 353.630 93.073 C 352.264 92.687,350.216 92.467,349.250 92.602 M312.382 93.006 C 311.313 93.376,309.967 94.257,309.083 95.166 L 308.417 95.852 308.333 94.468 L 308.250 93.083 305.667 93.134 C 304.246 93.161,302.558 93.236,301.917 93.300 L 300.750 93.417 300.699 94.208 L 300.648 95.000 301.221 95.000 C 302.358 95.000,303.442 95.717,303.822 96.719 C 304.068 97.367,304.067 111.337,303.821 111.876 C 303.561 112.449,303.069 112.692,301.973 112.791 L 301.000 112.880 301.000 113.690 L 301.000 114.500 306.750 114.500 L 312.500 114.500 312.500 113.691 L 312.500 112.882 311.245 112.776 C 308.333 112.530,308.426 112.785,308.369 104.912 L 308.322 98.359 309.036 97.494 C 309.803 96.565,311.262 95.569,312.098 95.404 L 312.613 95.302 312.538 96.207 C 312.304 99.029,316.014 100.005,317.184 97.430 C 318.587 94.341,315.841 91.812,312.382 93.006 M289.772 94.840 C 294.626 97.525,294.690 109.954,289.865 112.791 C 287.622 114.109,284.670 113.009,283.284 110.338 C 281.639 107.167,281.563 100.860,283.130 97.510 C 284.376 94.846,287.507 93.587,289.772 94.840 " stroke="none" fill="#1c1c14" fill-rule="evenodd"></path><path id="path4" d="M72.172 11.355 C 72.165 11.725,72.427 11.899,73.500 12.240 C 74.822 12.660,76.726 13.565,78.137 14.445 C 78.810 14.864,79.674 15.303,80.056 15.419 C 81.483 15.852,85.122 17.312,86.194 17.881 C 87.346 18.492,87.636 18.566,91.250 19.172 C 96.521 20.055,98.646 20.055,103.917 19.172 C 107.532 18.566,107.821 18.492,108.972 17.880 C 110.087 17.286,111.864 16.568,114.494 15.646 C 115.271 15.374,116.391 14.845,116.984 14.470 C 118.244 13.674,120.363 12.670,121.667 12.251 C 122.735 11.907,123.002 11.727,122.995 11.355 C 122.990 11.106,122.972 11.107,122.780 11.359 C 122.664 11.511,121.893 11.896,121.065 12.216 C 119.304 12.896,118.104 13.487,116.833 14.297 C 116.329 14.619,115.317 15.091,114.583 15.347 C 112.149 16.194,110.230 16.973,108.896 17.655 C 107.783 18.224,107.238 18.381,105.413 18.663 C 104.224 18.846,102.650 19.117,101.917 19.265 C 99.899 19.671,95.110 19.636,92.833 19.198 C 91.871 19.012,90.296 18.736,89.333 18.583 C 87.985 18.369,87.288 18.156,86.297 17.654 C 84.990 16.992,82.989 16.184,80.583 15.347 C 79.850 15.091,78.837 14.619,78.333 14.297 C 77.063 13.487,75.863 12.896,74.101 12.216 C 73.274 11.896,72.502 11.511,72.387 11.359 C 72.195 11.107,72.177 11.106,72.172 11.355 M63.295 41.621 C 63.594 41.658,64.044 41.657,64.295 41.619 C 64.545 41.581,64.300 41.551,63.750 41.552 C 63.200 41.553,62.995 41.584,63.295 41.621 M130.961 41.621 C 131.261 41.658,131.711 41.657,131.961 41.619 C 132.212 41.581,131.967 41.551,131.417 41.552 C 130.867 41.553,130.662 41.584,130.961 41.621 M70.167 41.885 C 70.167 41.914,70.410 42.158,70.708 42.427 L 71.250 42.917 70.760 42.375 C 70.304 41.870,70.167 41.757,70.167 41.885 M69.417 44.167 C 69.868 44.625,70.275 45.000,70.321 45.000 C 70.367 45.000,70.035 44.625,69.583 44.167 C 69.132 43.708,68.725 43.333,68.679 43.333 C 68.633 43.333,68.965 43.708,69.417 44.167 M125.667 44.083 C 125.262 44.496,124.968 44.833,125.014 44.833 C 125.060 44.833,125.428 44.496,125.833 44.083 C 126.238 43.671,126.532 43.333,126.486 43.333 C 126.440 43.333,126.072 43.671,125.667 44.083 M56.242 44.708 L 55.583 45.417 56.292 44.758 C 56.950 44.145,57.077 44.000,56.950 44.000 C 56.923 44.000,56.605 44.319,56.242 44.708 M138.750 44.667 C 139.108 45.033,139.438 45.333,139.484 45.333 C 139.530 45.333,139.275 45.033,138.917 44.667 C 138.559 44.300,138.228 44.000,138.182 44.000 C 138.137 44.000,138.392 44.300,138.750 44.667 M54.075 47.682 C 53.929 47.966,53.838 48.227,53.875 48.263 C 53.911 48.300,54.065 48.068,54.217 47.748 C 54.560 47.029,54.441 46.974,54.075 47.682 M73.553 49.667 C 73.553 50.262,73.584 50.506,73.621 50.208 C 73.658 49.910,73.658 49.423,73.621 49.125 C 73.584 48.827,73.553 49.071,73.553 49.667 M121.553 49.667 C 121.553 50.262,121.584 50.506,121.621 50.208 C 121.658 49.910,121.658 49.423,121.621 49.125 C 121.584 48.827,121.553 49.071,121.553 49.667 M50.542 52.583 C 50.544 52.950,50.578 53.080,50.618 52.873 C 50.658 52.666,50.656 52.366,50.615 52.206 C 50.573 52.047,50.540 52.217,50.542 52.583 M144.545 52.667 C 144.545 53.079,144.578 53.248,144.618 53.042 C 144.657 52.835,144.657 52.498,144.618 52.292 C 144.578 52.085,144.545 52.254,144.545 52.667 M75.997 55.324 C 75.081 56.944,74.437 57.721,73.222 58.676 C 71.962 59.666,70.552 61.110,68.971 63.030 C 68.391 63.733,67.049 65.308,65.990 66.530 C 62.466 70.590,60.799 73.166,59.078 77.213 C 56.904 82.326,54.955 85.216,50.508 89.917 C 49.815 90.650,48.798 91.742,48.249 92.343 C 43.306 97.754,40.328 99.200,34.083 99.222 C 25.121 99.254,18.714 95.560,16.316 88.977 C 16.037 88.211,15.572 87.171,15.283 86.667 C 14.995 86.162,14.416 84.775,13.997 83.583 C 13.312 81.633,13.195 81.414,12.826 81.386 C 12.601 81.369,12.538 81.391,12.687 81.436 C 12.993 81.527,13.266 82.110,14.003 84.250 C 14.287 85.075,14.783 86.222,15.106 86.800 C 15.428 87.377,15.873 88.382,16.094 89.032 C 18.650 96.545,28.665 101.081,38.493 99.176 C 41.920 98.512,44.435 96.684,49.911 90.879 C 55.060 85.421,57.275 82.205,59.333 77.199 C 60.961 73.239,63.108 69.998,66.804 65.917 C 67.551 65.092,68.628 63.817,69.197 63.083 C 70.288 61.678,72.416 59.497,74.098 58.059 C 74.750 57.502,75.292 56.845,75.644 56.184 C 76.189 55.162,76.500 54.903,76.500 55.473 C 76.500 55.642,76.650 56.368,76.834 57.087 C 77.018 57.806,77.278 59.112,77.412 59.989 C 77.545 60.866,77.811 62.108,78.003 62.750 C 78.194 63.392,78.542 64.585,78.776 65.402 C 79.417 67.641,80.676 69.245,83.499 71.417 C 83.976 71.783,84.940 72.549,85.641 73.117 C 86.343 73.686,87.592 74.673,88.417 75.311 C 91.261 77.511,92.902 79.631,93.517 81.900 L 93.693 82.549 92.554 83.733 C 90.876 85.476,90.909 85.348,91.651 87.275 C 93.066 90.947,93.369 91.686,93.436 91.620 C 93.499 91.556,93.060 90.380,91.655 86.852 C 91.091 85.435,91.013 85.650,92.722 83.889 C 94.105 82.463,94.115 82.296,92.962 80.004 C 92.110 78.310,90.735 76.783,88.583 75.141 C 87.758 74.512,86.510 73.529,85.810 72.957 C 85.110 72.385,84.102 71.579,83.571 71.167 C 80.598 68.857,79.763 67.720,78.856 64.750 C 77.957 61.803,77.867 61.439,77.662 59.911 C 77.565 59.181,77.367 58.171,77.223 57.667 C 77.079 57.163,76.874 56.198,76.769 55.524 L 76.577 54.298 75.997 55.324 M118.435 55.292 C 118.374 55.819,118.180 56.775,118.004 57.417 C 117.828 58.058,117.604 59.181,117.506 59.911 C 117.303 61.414,117.223 61.740,116.322 64.736 C 115.483 67.528,114.494 68.980,112.391 70.507 C 111.855 70.895,111.192 71.424,110.917 71.681 C 110.358 72.204,108.829 73.424,106.583 75.140 C 104.466 76.757,103.061 78.319,102.204 80.011 C 101.050 82.285,101.061 82.462,102.444 83.889 C 104.154 85.650,104.076 85.435,103.512 86.852 C 102.072 90.468,101.669 91.558,101.743 91.632 C 101.788 91.677,101.876 91.572,101.939 91.399 C 102.156 90.793,103.842 86.414,104.002 86.037 C 104.218 85.529,104.011 85.185,102.607 83.727 L 101.461 82.536 101.755 81.643 C 102.524 79.304,104.010 77.421,106.750 75.314 C 109.117 73.494,110.542 72.354,111.083 71.849 C 111.358 71.592,111.921 71.154,112.333 70.876 C 113.060 70.387,114.679 68.739,115.471 67.683 C 116.089 66.860,117.821 60.845,117.830 59.491 C 117.832 59.257,118.019 58.357,118.247 57.491 C 118.474 56.625,118.662 55.748,118.664 55.542 C 118.669 54.939,118.964 55.106,119.399 55.958 C 119.878 56.895,120.806 58.007,121.550 58.534 C 121.843 58.742,121.629 58.463,121.075 57.914 C 120.476 57.322,119.780 56.392,119.362 55.625 C 118.521 54.082,118.573 54.100,118.435 55.292 M68.573 58.542 L 68.083 59.083 68.625 58.594 C 69.130 58.138,69.243 58.000,69.115 58.000 C 69.086 58.000,68.842 58.244,68.573 58.542 M139.577 59.042 L 138.750 59.917 139.625 59.090 C 140.438 58.321,140.576 58.167,140.452 58.167 C 140.426 58.167,140.032 58.560,139.577 59.042 M55.493 59.042 C 55.902 59.477,56.258 59.833,56.285 59.833 C 56.410 59.833,56.278 59.684,55.542 58.993 L 54.750 58.250 55.493 59.042 M123.429 60.175 C 124.169 60.950,125.353 62.296,126.059 63.167 C 126.765 64.037,128.097 65.612,129.020 66.667 C 130.515 68.374,132.632 71.185,133.859 73.092 C 134.508 74.099,135.018 75.166,136.087 77.750 C 138.063 82.524,140.026 85.320,145.498 91.149 C 152.015 98.093,154.652 99.500,161.143 99.500 C 168.005 99.500,173.035 97.459,176.618 93.220 C 177.825 91.791,178.663 90.352,179.170 88.833 C 179.368 88.237,179.782 87.300,180.089 86.750 C 180.396 86.200,180.945 84.925,181.308 83.917 C 182.246 81.316,182.169 81.462,182.547 81.561 C 182.779 81.621,182.828 81.595,182.707 81.474 C 182.264 81.030,181.901 81.507,181.263 83.375 C 180.911 84.406,180.334 85.787,179.981 86.444 C 179.628 87.101,179.116 88.254,178.841 89.005 C 176.483 95.466,170.069 99.215,161.333 99.238 C 154.950 99.255,152.267 97.981,147.029 92.444 C 141.548 86.652,139.150 83.628,137.620 80.582 C 137.206 79.758,136.525 78.242,136.105 77.213 C 135.116 74.783,134.648 73.872,133.559 72.250 C 131.527 69.225,130.169 67.495,127.667 64.747 C 127.071 64.092,125.967 62.803,125.215 61.882 C 124.462 60.962,123.449 59.884,122.965 59.488 C 122.205 58.867,122.270 58.962,123.429 60.175 M53.417 59.833 C 53.775 60.200,54.105 60.500,54.151 60.500 C 54.197 60.500,53.941 60.200,53.583 59.833 C 53.225 59.467,52.895 59.167,52.849 59.167 C 52.803 59.167,53.059 59.467,53.417 59.833 M141.500 59.917 C 141.095 60.329,140.801 60.667,140.847 60.667 C 140.893 60.667,141.262 60.329,141.667 59.917 C 142.072 59.504,142.365 59.167,142.319 59.167 C 142.274 59.167,141.905 59.504,141.500 59.917 M59.958 62.789 C 60.348 62.824,60.985 62.824,61.375 62.789 C 61.765 62.754,61.446 62.725,60.667 62.725 C 59.887 62.725,59.569 62.754,59.958 62.789 M133.792 62.789 C 134.181 62.824,134.819 62.824,135.208 62.789 C 135.598 62.754,135.279 62.725,134.500 62.725 C 133.721 62.725,133.402 62.754,133.792 62.789 M93.561 92.098 C 94.191 93.810,95.564 97.158,95.615 97.107 C 95.650 97.072,95.264 95.981,94.756 94.683 C 94.249 93.385,93.833 92.255,93.833 92.171 C 93.833 92.088,93.746 91.965,93.638 91.899 C 93.503 91.815,93.479 91.876,93.561 92.098 M101.001 93.205 C 99.494 96.993,98.337 100.060,98.395 100.117 C 98.430 100.152,98.776 99.371,99.163 98.382 C 99.551 97.393,100.277 95.544,100.777 94.274 C 101.277 93.003,101.655 91.933,101.618 91.896 C 101.580 91.858,101.303 92.447,101.001 93.205 M95.667 97.384 C 95.667 97.442,95.993 98.336,96.392 99.370 C 96.791 100.404,97.164 101.381,97.220 101.542 C 97.365 101.953,97.815 101.904,97.982 101.458 C 98.311 100.578,98.368 100.292,98.191 100.402 C 98.093 100.462,97.964 100.772,97.905 101.089 C 97.763 101.846,97.449 101.824,97.218 101.042 C 96.784 99.575,95.667 96.939,95.667 97.384 " stroke="none" fill="#edb472" fill-rule="evenodd"></path></g></svg>